ffmpeg started on 2025-06-03 at 19:28:07
Report written to "D:\Convert\FFMetrics\reports\psnr_report-6.txt"
Log level: 32
Command line:
ffmpeg -hide_banner -nostdin -i "G:\\\xc0\xed\xe8\xec\xe5\\\xce\xed\xe3\xee\xe8\xed\xe3\xe8\\!_36_\xce\xf1\xe5\xed\xfc_2024\\DreamCast\\\xc1\xe0\xf8\xed\xff \xc1\xee\xe3\xe0\\\xd2\xc2-2\\[DC] Kami no Tou - Ouji no Kikan - 05_Telegram_HEVC.mkv" -i "G:\\\xc0\xed\xe8\xec\xe5\\\xce\xed\xe3\xee\xe8\xed\xe3\xe8\\!_36_\xce\xf1\xe5\xed\xfc_2024\\DreamCast\\\xc1\xe0\xf8\xed\xff \xc1\xee\xe3\xe0\\\xd2\xc2-2\\[DC] Kami no Tou - Ouji no Kikan - 05_Telegram.mp4" -lavfi "[0:v]settb=AVTB,setpts=PTS-STARTPTS,format=pix_fmts=yuv420p10,fps=24000/1001,scale=1920:1080:flags=bicubic[main];[1:v]settb=AVTB,setpts=PTS-STARTPTS,format=pix_fmts=yuv420p,fps=24000/1001,scale=1920:1080:flags=bicubic[ref];[main][ref]psnr=eof_action=endall:stats_file='D\\:/Convert/FFMetrics/logs/psnr_logfile-6.txt'" -f null -
Input #0, matroska,webm, from 'G:\Аниме\Онгоинги\!_36_Осень_2024\DreamCast\Башня Бога\ТВ-2\[DC] Kami no Tou - Ouji no Kikan - 05_Telegram_HEVC.mkv':
  Metadata:
    COMPATIBLE_BRANDS: isomiso2avc1mp41
    MAJOR_BRAND     : isom
    MINOR_VERSION   : 512
    ENCODER         : Lavf61.7.100
  Duration: 00:23:47.93, start: -0.021000, bitrate: 1243 kb/s
  Stream #0:0: Video: hevc (Main 10), yuv420p10le(tv, bt709, progressive), 1920x1080 [SAR 1:1 DAR 16:9], 23.98 fps, 23.98 tbr, 1k tbn (default)
      Metadata:
        HANDLER_NAME    : VideoHandler
        VENDOR_ID       : [0][0][0][0]
        ENCODER         : Lavc61.19.100 libx265
        BPS             : 1046430
        DURATION        : 00:23:47.509708333
        NUMBER_OF_FRAMES: 34226
        NUMBER_OF_BYTES : 186723553
        _STATISTICS_WRITING_APP: mkvpropedit v66.0.0 ('Josie') 64-bit
        _STATISTICS_WRITING_DATE_UTC: 2025-05-29 16:23:02
        _STATISTICS_TAGS: BPS DURATION NUMBER_OF_FRAMES NUMBER_OF_BYTES
  Stream #0:1: Audio: aac (LC), 48000 Hz, stereo, fltp (default)
      Metadata:
        HANDLER_NAME    : SoundHandler
        VENDOR_ID       : [0][0][0][0]
        ENCODER         : Lavc61.19.100 aac
        BPS             : 193321
        DURATION        : 00:23:47.925000000
        NUMBER_OF_FRAMES: 66935
        NUMBER_OF_BYTES : 34506091
        _STATISTICS_WRITING_APP: mkvpropedit v66.0.0 ('Josie') 64-bit
        _STATISTICS_WRITING_DATE_UTC: 2025-05-29 16:23:02
        _STATISTICS_TAGS: BPS DURATION NUMBER_OF_FRAMES NUMBER_OF_BYTES
Input #1, mov,mp4,m4a,3gp,3g2,mj2, from 'G:\Аниме\Онгоинги\!_36_Осень_2024\DreamCast\Башня Бога\ТВ-2\[DC] Kami no Tou - Ouji no Kikan - 05_Telegram.mp4':
  Metadata:
    major_brand     : isom
    minor_version   : 512
    compatible_brands: isomiso2avc1mp41
    encoder         : Lavf61.1.100
  Duration: 00:23:47.89, start: 0.000000, bitrate: 3281 kb/s
  Stream #1:0[0x1](und): Video: h264 (High) (avc1 / 0x31637661), yuv420p(tv, bt709, progressive), 1920x1080 [SAR 1:1 DAR 16:9], 3134 kb/s, 23.98 fps, 23.98 tbr, 24k tbn (default)
      Metadata:
        handler_name    : VideoHandler
        vendor_id       : [0][0][0][0]
        encoder         : Lavc61.3.100 h264_qsv
  Stream #1:1[0x2](und): Audio: aac (HE-AACv2) (mp4a / 0x6134706D), 48000 Hz, stereo, fltp, 144 kb/s (default)
      Metadata:
        handler_name    : SoundHandler
        vendor_id       : [0][0][0][0]
Stream mapping:
  Stream #0:0 (hevc) -> settb:default
  Stream #1:0 (h264) -> settb:default
  psnr:default -> Stream #0:0 (wrapped_avframe)
  Stream #0:1 -> #0:1 (aac (native) -> pcm_s16le (native))
Output #0, null, to 'pipe:':
  Metadata:
    COMPATIBLE_BRANDS: isomiso2avc1mp41
    MAJOR_BRAND     : isom
    MINOR_VERSION   : 512
    encoder         : Lavf61.7.100
  Stream #0:0: Video: wrapped_avframe, yuv420p10le(tv, bt709, progressive), 1920x1080 [SAR 1:1 DAR 16:9], q=2-31, 200 kb/s, 23.98 fps, 23.98 tbn
      Metadata:
        encoder         : Lavc61.19.100 wrapped_avframe
  Stream #0:1: Audio: pcm_s16le, 48000 Hz, stereo, s16, 1536 kb/s (default)
      Metadata:
        HANDLER_NAME    : SoundHandler
        VENDOR_ID       : [0][0][0][0]
        _STATISTICS_TAGS: BPS DURATION NUMBER_OF_FRAMES NUMBER_OF_BYTES
        BPS             : 193321
        DURATION        : 00:23:47.925000000
        NUMBER_OF_FRAMES: 66935
        NUMBER_OF_BYTES : 34506091
        _STATISTICS_WRITING_APP: mkvpropedit v66.0.0 ('Josie') 64-bit
        _STATISTICS_WRITING_DATE_UTC: 2025-05-29 16:23:02
        encoder         : Lavc61.19.100 pcm_s16le
frame=  163 fps=0.0 q=-0.0 size=N/A time=00:00:06.79 bitrate=N/A speed=13.3x    frame=  411 fps=397 q=-0.0 size=N/A time=00:00:17.14 bitrate=N/A speed=16.6x    frame=  664 fps=430 q=-0.0 size=N/A time=00:00:27.69 bitrate=N/A speed=17.9x    frame=  924 fps=446 q=-0.0 size=N/A time=00:00:38.53 bitrate=N/A speed=18.6x    frame= 1183 fps=459 q=-0.0 size=N/A time=00:00:49.34 bitrate=N/A speed=19.1x    frame= 1437 fps=465 q=-0.0 size=N/A time=00:00:59.93 bitrate=N/A speed=19.4x    frame= 1699 fps=471 q=-0.0 size=N/A time=00:01:10.86 bitrate=N/A speed=19.6x    frame= 1945 fps=470 q=-0.0 size=N/A time=00:01:21.12 bitrate=N/A speed=19.6x    frame= 2224 fps=477 q=-0.0 size=N/A time=00:01:32.80 bitrate=N/A speed=19.9x    frame= 2464 fps=475 q=-0.0 size=N/A time=00:01:42.76 bitrate=N/A speed=19.8x    frame= 2741 fps=480 q=-0.0 size=N/A time=00:01:54.32 bitrate=N/A speed=  20x    frame= 2939 fps=473 q=-0.0 size=N/A time=00:02:02.58 bitrate=N/A speed=19.7x    frame= 3065 fps=455 q=-0.0 size=N/A time=00:02:07.83 bitrate=N/A speed=  19x    frame= 3223 fps=444 q=-0.0 size=N/A time=00:02:14.42 bitrate=N/A speed=18.5x    frame= 3366 fps=433 q=-0.0 size=N/A time=00:02:20.39 bitrate=N/A speed=18.1x    frame= 3495 fps=422 q=-0.0 size=N/A time=00:02:25.77 bitrate=N/A speed=17.6x    frame= 3637 fps=413 q=-0.0 size=N/A time=00:02:31.69 bitrate=N/A speed=17.2x    frame= 3776 fps=406 q=-0.0 size=N/A time=00:02:37.49 bitrate=N/A speed=16.9x    frame= 3923 fps=399 q=-0.0 size=N/A time=00:02:43.62 bitrate=N/A speed=16.6x    frame= 4110 fps=397 q=-0.0 size=N/A time=00:02:51.42 bitrate=N/A speed=16.6x    frame= 4262 fps=392 q=-0.0 size=N/A time=00:02:57.76 bitrate=N/A speed=16.3x    frame= 4390 fps=386 q=-0.0 size=N/A time=00:03:03.09 bitrate=N/A speed=16.1x    frame= 4507 fps=378 q=-0.0 size=N/A time=00:03:07.97 bitrate=N/A speed=15.8x    frame= 4610 fps=371 q=-0.0 size=N/A time=00:03:12.27 bitrate=N/A speed=15.5x    frame= 4711 fps=364 q=-0.0 size=N/A time=00:03:16.48 bitrate=N/A speed=15.2x    frame= 4859 fps=361 q=-0.0 size=N/A time=00:03:22.66 bitrate=N/A speed=15.1x    frame= 5006 fps=358 q=-0.0 size=N/A time=00:03:28.79 bitrate=N/A speed=14.9x    frame= 5252 fps=363 q=-0.0 size=N/A time=00:03:39.05 bitrate=N/A speed=15.1x    frame= 5523 fps=368 q=-0.0 size=N/A time=00:03:50.35 bitrate=N/A speed=15.4x    frame= 5764 fps=372 q=-0.0 size=N/A time=00:04:00.40 bitrate=N/A speed=15.5x    frame= 6040 fps=377 q=-0.0 size=N/A time=00:04:11.91 bitrate=N/A speed=15.7x    frame= 6288 fps=380 q=-0.0 size=N/A time=00:04:22.26 bitrate=N/A speed=15.8x    frame= 6532 fps=383 q=-0.0 size=N/A time=00:04:32.43 bitrate=N/A speed=  16x    frame= 6811 fps=387 q=-0.0 size=N/A time=00:04:44.07 bitrate=N/A speed=16.2x    frame= 7048 fps=389 q=-0.0 size=N/A time=00:04:53.96 bitrate=N/A speed=16.2x    frame= 7308 fps=393 q=-0.0 size=N/A time=00:05:04.80 bitrate=N/A speed=16.4x    frame= 7569 fps=396 q=-0.0 size=N/A time=00:05:15.69 bitrate=N/A speed=16.5x    frame= 7843 fps=399 q=-0.0 size=N/A time=00:05:27.11 bitrate=N/A speed=16.6x    frame= 8073 fps=400 q=-0.0 size=N/A time=00:05:36.71 bitrate=N/A speed=16.7x    frame= 8265 fps=399 q=-0.0 size=N/A time=00:05:44.71 bitrate=N/A speed=16.7x    frame= 8518 fps=402 q=-0.0 size=N/A time=00:05:55.27 bitrate=N/A speed=16.8x    frame= 8758 fps=403 q=-0.0 size=N/A time=00:06:05.28 bitrate=N/A speed=16.8x    frame= 9030 fps=406 q=-0.0 size=N/A time=00:06:16.62 bitrate=N/A speed=16.9x    frame= 9280 fps=408 q=-0.0 size=N/A time=00:06:27.05 bitrate=N/A speed=  17x    frame= 9535 fps=410 q=-0.0 size=N/A time=00:06:37.68 bitrate=N/A speed=17.1x    frame= 9777 fps=411 q=-0.0 size=N/A time=00:06:47.78 bitrate=N/A speed=17.1x    frame=10019 fps=412 q=-0.0 size=N/A time=00:06:57.87 bitrate=N/A speed=17.2x    frame=10285 fps=414 q=-0.0 size=N/A time=00:07:08.97 bitrate=N/A speed=17.3x    frame=10552 fps=417 q=-0.0 size=N/A time=00:07:20.10 bitrate=N/A speed=17.4x    frame=10806 fps=418 q=-0.0 size=N/A time=00:07:30.70 bitrate=N/A speed=17.4x    frame=11039 fps=419 q=-0.0 size=N/A time=00:07:40.41 bitrate=N/A speed=17.5x    frame=11297 fps=420 q=-0.0 size=N/A time=00:07:51.17 bitrate=N/A speed=17.5x    frame=11566 fps=422 q=-0.0 size=N/A time=00:08:02.39 bitrate=N/A speed=17.6x    frame=11829 fps=424 q=-0.0 size=N/A time=00:08:13.36 bitrate=N/A speed=17.7x    frame=12101 fps=426 q=-0.0 size=N/A time=00:08:24.71 bitrate=N/A speed=17.8x    frame=12366 fps=427 q=-0.0 size=N/A time=00:08:35.76 bitrate=N/A speed=17.8x    frame=12629 fps=429 q=-0.0 size=N/A time=00:08:46.73 bitrate=N/A speed=17.9x    frame=12909 fps=431 q=-0.0 size=N/A time=00:08:58.41 bitrate=N/A speed=  18x    frame=13183 fps=432 q=-0.0 size=N/A time=00:09:09.84 bitrate=N/A speed=  18x    frame=13452 fps=434 q=-0.0 size=N/A time=00:09:21.06 bitrate=N/A speed=18.1x    frame=13733 fps=435 q=-0.0 size=N/A time=00:09:32.78 bitrate=N/A speed=18.2x    frame=13998 fps=437 q=-0.0 size=N/A time=00:09:43.83 bitrate=N/A speed=18.2x    frame=14247 fps=438 q=-0.0 size=N/A time=00:09:54.21 bitrate=N/A speed=18.2x    frame=14502 fps=438 q=-0.0 size=N/A time=00:10:04.85 bitrate=N/A speed=18.3x    frame=14746 fps=439 q=-0.0 size=N/A time=00:10:15.03 bitrate=N/A speed=18.3x    frame=15010 fps=440 q=-0.0 size=N/A time=00:10:26.04 bitrate=N/A speed=18.4x    frame=15285 fps=441 q=-0.0 size=N/A time=00:10:37.51 bitrate=N/A speed=18.4x    frame=15532 fps=442 q=-0.0 size=N/A time=00:10:47.81 bitrate=N/A speed=18.4x    frame=15750 fps=442 q=-0.0 size=N/A time=00:10:56.90 bitrate=N/A speed=18.4x    frame=15993 fps=442 q=-0.0 size=N/A time=00:11:07.04 bitrate=N/A speed=18.4x    frame=16230 fps=442 q=-0.0 size=N/A time=00:11:16.92 bitrate=N/A speed=18.5x    frame=16491 fps=443 q=-0.0 size=N/A time=00:11:27.81 bitrate=N/A speed=18.5x    frame=16728 fps=443 q=-0.0 size=N/A time=00:11:37.69 bitrate=N/A speed=18.5x    frame=16980 fps=444 q=-0.0 size=N/A time=00:11:48.20 bitrate=N/A speed=18.5x    frame=17260 fps=445 q=-0.0 size=N/A time=00:11:59.88 bitrate=N/A speed=18.6x    frame=17522 fps=446 q=-0.0 size=N/A time=00:12:10.81 bitrate=N/A speed=18.6x    frame=17783 fps=447 q=-0.0 size=N/A time=00:12:21.69 bitrate=N/A speed=18.6x    frame=18051 fps=448 q=-0.0 size=N/A time=00:12:32.87 bitrate=N/A speed=18.7x    frame=18331 fps=449 q=-0.0 size=N/A time=00:12:44.55 bitrate=N/A speed=18.7x    frame=18590 fps=450 q=-0.0 size=N/A time=00:12:55.35 bitrate=N/A speed=18.8x    frame=18860 fps=451 q=-0.0 size=N/A time=00:13:06.61 bitrate=N/A speed=18.8x    frame=19121 fps=451 q=-0.0 size=N/A time=00:13:17.50 bitrate=N/A speed=18.8x    frame=19380 fps=452 q=-0.0 size=N/A time=00:13:28.30 bitrate=N/A speed=18.8x    frame=19641 fps=453 q=-0.0 size=N/A time=00:13:39.19 bitrate=N/A speed=18.9x    frame=19916 fps=454 q=-0.0 size=N/A time=00:13:50.66 bitrate=N/A speed=18.9x    frame=20164 fps=454 q=-0.0 size=N/A time=00:14:01.00 bitrate=N/A speed=18.9x    frame=20408 fps=454 q=-0.0 size=N/A time=00:14:11.18 bitrate=N/A speed=18.9x    frame=20670 fps=455 q=-0.0 size=N/A time=00:14:22.11 bitrate=N/A speed=  19x    frame=20933 fps=455 q=-0.0 size=N/A time=00:14:33.08 bitrate=N/A speed=  19x    frame=21174 fps=456 q=-0.0 size=N/A time=00:14:43.13 bitrate=N/A speed=  19x    frame=21446 fps=456 q=-0.0 size=N/A time=00:14:54.47 bitrate=N/A speed=  19x    frame=21698 fps=457 q=-0.0 size=N/A time=00:15:04.98 bitrate=N/A speed=  19x    frame=21934 fps=457 q=-0.0 size=N/A time=00:15:14.83 bitrate=N/A speed=  19x    frame=22172 fps=457 q=-0.0 size=N/A time=00:15:24.79 bitrate=N/A speed=  19x    frame=22452 fps=458 q=-0.0 size=N/A time=00:15:36.43 bitrate=N/A speed=19.1x    frame=22678 fps=457 q=-0.0 size=N/A time=00:15:45.86 bitrate=N/A speed=19.1x    frame=22923 fps=458 q=-0.0 size=N/A time=00:15:56.08 bitrate=N/A speed=19.1x    frame=23137 fps=457 q=-0.0 size=N/A time=00:16:05.00 bitrate=N/A speed=19.1x    frame=23403 fps=458 q=-0.0 size=N/A time=00:16:16.10 bitrate=N/A speed=19.1x    frame=23689 fps=459 q=-0.0 size=N/A time=00:16:28.02 bitrate=N/A speed=19.1x    frame=23961 fps=459 q=-0.0 size=N/A time=00:16:39.37 bitrate=N/A speed=19.2x    frame=24239 fps=460 q=-0.0 size=N/A time=00:16:50.96 bitrate=N/A speed=19.2x    frame=24450 fps=460 q=-0.0 size=N/A time=00:16:59.76 bitrate=N/A speed=19.2x    frame=24646 fps=459 q=-0.0 size=N/A time=00:17:07.94 bitrate=N/A speed=19.1x    frame=24885 fps=459 q=-0.0 size=N/A time=00:17:17.91 bitrate=N/A speed=19.1x    frame=25131 fps=459 q=-0.0 size=N/A time=00:17:28.17 bitrate=N/A speed=19.2x    frame=25386 fps=460 q=-0.0 size=N/A time=00:17:38.80 bitrate=N/A speed=19.2x    frame=25634 fps=460 q=-0.0 size=N/A time=00:17:49.15 bitrate=N/A speed=19.2x    frame=25896 fps=460 q=-0.0 size=N/A time=00:18:00.07 bitrate=N/A speed=19.2x    frame=26169 fps=461 q=-0.0 size=N/A time=00:18:11.46 bitrate=N/A speed=19.2x    frame=26429 fps=461 q=-0.0 size=N/A time=00:18:22.30 bitrate=N/A speed=19.2x    frame=26674 fps=461 q=-0.0 size=N/A time=00:18:32.52 bitrate=N/A speed=19.2x    frame=26915 fps=461 q=-0.0 size=N/A time=00:18:42.57 bitrate=N/A speed=19.2x    frame=27101 fps=460 q=-0.0 size=N/A time=00:18:50.33 bitrate=N/A speed=19.2x    frame=27380 fps=461 q=-0.0 size=N/A time=00:19:01.97 bitrate=N/A speed=19.2x    frame=27664 fps=462 q=-0.0 size=N/A time=00:19:13.81 bitrate=N/A speed=19.3x    frame=27936 fps=462 q=-0.0 size=N/A time=00:19:25.16 bitrate=N/A speed=19.3x    frame=28205 fps=463 q=-0.0 size=N/A time=00:19:36.38 bitrate=N/A speed=19.3x    frame=28468 fps=463 q=-0.0 size=N/A time=00:19:47.35 bitrate=N/A speed=19.3x    frame=28729 fps=464 q=-0.0 size=N/A time=00:19:58.23 bitrate=N/A speed=19.3x    frame=28995 fps=464 q=-0.0 size=N/A time=00:20:09.33 bitrate=N/A speed=19.4x    frame=29277 fps=465 q=-0.0 size=N/A time=00:20:21.09 bitrate=N/A speed=19.4x    frame=29514 fps=465 q=-0.0 size=N/A time=00:20:30.97 bitrate=N/A speed=19.4x    frame=29747 fps=465 q=-0.0 size=N/A time=00:20:40.69 bitrate=N/A speed=19.4x    frame=30002 fps=465 q=-0.0 size=N/A time=00:20:51.33 bitrate=N/A speed=19.4x    frame=30243 fps=465 q=-0.0 size=N/A time=00:21:01.38 bitrate=N/A speed=19.4x    frame=30482 fps=465 q=-0.0 size=N/A time=00:21:11.35 bitrate=N/A speed=19.4x    frame=30745 fps=465 q=-0.0 size=N/A time=00:21:22.32 bitrate=N/A speed=19.4x    frame=31015 fps=466 q=-0.0 size=N/A time=00:21:33.58 bitrate=N/A speed=19.4x    frame=31287 fps=466 q=-0.0 size=N/A time=00:21:44.92 bitrate=N/A speed=19.4x    frame=31540 fps=466 q=-0.0 size=N/A time=00:21:55.48 bitrate=N/A speed=19.4x    frame=31792 fps=466 q=-0.0 size=N/A time=00:22:05.99 bitrate=N/A speed=19.5x    frame=32051 fps=467 q=-0.0 size=N/A time=00:22:16.79 bitrate=N/A speed=19.5x    frame=32287 fps=467 q=-0.0 size=N/A time=00:22:26.63 bitrate=N/A speed=19.5x    frame=32492 fps=466 q=-0.0 size=N/A time=00:22:35.18 bitrate=N/A speed=19.4x    frame=32681 fps=465 q=-0.0 size=N/A time=00:22:43.07 bitrate=N/A speed=19.4x    frame=32869 fps=465 q=-0.0 size=N/A time=00:22:50.91 bitrate=N/A speed=19.4x    frame=33070 fps=464 q=-0.0 size=N/A time=00:22:59.29 bitrate=N/A speed=19.4x    frame=33315 fps=464 q=-0.0 size=N/A time=00:23:09.51 bitrate=N/A speed=19.4x    frame=33557 fps=464 q=-0.0 size=N/A time=00:23:19.60 bitrate=N/A speed=19.4x    frame=33805 fps=464 q=-0.0 size=N/A time=00:23:29.95 bitrate=N/A speed=19.4x    frame=34030 fps=464 q=-0.0 size=N/A time=00:23:39.33 bitrate=N/A speed=19.4x    [Parsed_psnr_10 @ 000001a9485b92c0] PSNR y:48.941196 u:51.659629 v:51.332060 average:49.637302 min:36.941379 max:inf
[out#0/null @ 000001a946165880] video:14706KiB audio:267740KiB subtitle:0KiB other streams:0KiB global headers:0KiB muxing overhead: unknown
frame=34226 fps=464 q=-0.0 Lsize=N/A time=00:23:47.50 bitrate=N/A speed=19.4x    
